HIERARCHY
ROOT hip
{
	OFFSET 0.000000 0.000000 0.000000 
	CHANNELS 6 Xposition Yposition Zposition Zrotation Yrotation Xrotation
	JOINT abdomen
	{
		OFFSET 0.000000 20.688101 -0.731520 
		CHANNELS 3 Zrotation Xrotation Yrotation
		JOINT chest
		{
			OFFSET 0.000000 11.704300 -0.487680 
			CHANNELS 3 Zrotation Xrotation Yrotation
			JOINT neck
			{
				OFFSET 0.000000 22.189400 -2.194560 
				CHANNELS 3 Zrotation Xrotation Yrotation
				JOINT head
				{
					OFFSET -0.243840 7.071330 1.219200 
					CHANNELS 3 Zrotation Xrotation Yrotation
					JOINT leftEye
					{
						OFFSET 4.145280 8.046740 8.046720 
						CHANNELS 3 Zrotation Xrotation Yrotation
						End Site
						{
							OFFSET 1.000000 0.000000 0.000000 
						}
					}
					JOINT rightEye
					{
						OFFSET -3.657600 8.046740 8.046720 
						CHANNELS 3 Zrotation Xrotation Yrotation
						End Site
						{
							OFFSET 1.000000 0.000000 0.000000 
						}
					}
				}
			}
			JOINT rCollar
			{
				OFFSET -2.682240 19.263399 -4.876800 
				CHANNELS 3 Zrotation Xrotation Yrotation
				JOINT rShldr
				{
					OFFSET -8.778240 -1.950730 1.463040 
					CHANNELS 3 Zrotation Xrotation Yrotation
					JOINT rForeArm
					{
						OFFSET -28.174200 -1.711500 0.487680 
						CHANNELS 3 Zrotation Xrotation Yrotation
						JOINT rHand
						{
							OFFSET -22.587900 0.773209 7.071360 
							CHANNELS 3 Zrotation Xrotation Yrotation
							JOINT rThumb1
							{
								OFFSET -1.219200 -0.487915 3.413760 
								CHANNELS 3 Zrotation Xrotation Yrotation
								JOINT rThumb2
								{
									OFFSET -3.370350 -0.524490 3.413760 
									CHANNELS 3 Zrotation Xrotation Yrotation
									End Site
									{
										OFFSET -1.782710 -1.182140 1.430490 
									}
								}
							}
							JOINT rIndex1
							{
								OFFSET -7.759470 0.938293 5.608320 
								CHANNELS 3 Zrotation Xrotation Yrotation
								JOINT rIndex2
								{
									OFFSET -2.540570 -0.884171 1.565380 
									CHANNELS 3 Zrotation Xrotation Yrotation
									End Site
									{
										OFFSET -1.625190 -0.234802 1.165020 
									}
								}
							}
							JOINT rMid1
							{
								OFFSET -8.247140 1.182130 3.413760 
								CHANNELS 3 Zrotation Xrotation Yrotation
								JOINT rMid2
								{
									OFFSET -3.101650 -0.590103 1.064700 
									CHANNELS 3 Zrotation Xrotation Yrotation
									End Site
									{
										OFFSET -2.485470 -0.328903 0.837420 
									}
								}
							}
							JOINT rRing1
							{
								OFFSET -8.828220 0.546677 1.516780 
								CHANNELS 3 Zrotation Xrotation Yrotation
								JOINT rRing2
								{
									OFFSET -2.609340 -0.819778 -0.019849 
									CHANNELS 3 Zrotation Xrotation Yrotation
									End Site
									{
										OFFSET -2.338420 -0.294052 0.168128 
									}
								}
							}
							JOINT rPinky1
							{
								OFFSET -8.272020 -0.047791 -0.458400 
								CHANNELS 3 Zrotation Xrotation Yrotation
								JOINT rPinky2
								{
									OFFSET -1.827340 -0.647385 -0.700984 
									CHANNELS 3 Zrotation Xrotation Yrotation
									End Site
									{
										OFFSET -1.692250 -0.517670 -0.607171 
									}
								}
							}
						}
					}
				}
			}
			JOINT lCollar
			{
				OFFSET 2.682240 19.263399 -4.876800 
				CHANNELS 3 Zrotation Xrotation Yrotation
				JOINT lShldr
				{
					OFFSET 8.778240 -1.950730 1.463040 
					CHANNELS 3 Zrotation Xrotation Yrotation
					JOINT lForeArm
					{
						OFFSET 28.174200 -1.711500 0.487680 
						CHANNELS 3 Zrotation Xrotation Yrotation
						JOINT lHand
						{
							OFFSET 22.587900 0.773209 7.071360 
							CHANNELS 3 Zrotation Xrotation Yrotation
							JOINT lThumb1
							{
								OFFSET 1.219200 -0.487915 3.413760 
								CHANNELS 3 Zrotation Xrotation Yrotation
								JOINT lThumb2
								{
									OFFSET 3.370350 -0.524490 3.413760 
									CHANNELS 3 Zrotation Xrotation Yrotation
									End Site
									{
										OFFSET 1.782710 -1.182140 1.430490 
									}
								}
							}
							JOINT lIndex1
							{
								OFFSET 7.759470 0.938293 5.608320 
								CHANNELS 3 Zrotation Xrotation Yrotation
								JOINT lIndex2
								{
									OFFSET 2.540570 -0.884171 1.565380 
									CHANNELS 3 Zrotation Xrotation Yrotation
									End Site
									{
										OFFSET 1.625190 -0.234802 1.165020 
									}
								}
							}
							JOINT lMid1
							{
								OFFSET 8.247140 1.182130 3.413760 
								CHANNELS 3 Zrotation Xrotation Yrotation
								JOINT lMid2
								{
									OFFSET 3.101650 -0.590103 1.064700 
									CHANNELS 3 Zrotation Xrotation Yrotation
									End Site
									{
										OFFSET 2.485470 -0.328903 0.837420 
									}
								}
							}
							JOINT lRing1
							{
								OFFSET 8.828220 0.546677 1.516780 
								CHANNELS 3 Zrotation Xrotation Yrotation
								JOINT lRing2
								{
									OFFSET 2.609340 -0.819778 -0.019849 
									CHANNELS 3 Zrotation Xrotation Yrotation
									End Site
									{
										OFFSET 2.338420 -0.294052 0.168128 
									}
								}
							}
							JOINT lPinky1
							{
								OFFSET 8.272020 -0.047791 -0.458400 
								CHANNELS 3 Zrotation Xrotation Yrotation
								JOINT lPinky2
								{
									OFFSET 1.827340 -0.647385 -0.700984 
									CHANNELS 3 Zrotation Xrotation Yrotation
									End Site
									{
										OFFSET 1.692250 -0.517670 -0.607171 
									}
								}
							}
						}
					}
				}
			}
		}
	}
	JOINT rButtock
	{
		OFFSET -8.778240 4.350840 1.219200 
		CHANNELS 3 Zrotation Xrotation Yrotation
		JOINT rThigh
		{
			OFFSET 0.000000 -1.706870 -2.194560 
			CHANNELS 3 Zrotation Xrotation Yrotation
			JOINT rShin
			{
				OFFSET 0.000000 -36.819901 0.731520 
				CHANNELS 3 Zrotation Xrotation Yrotation
				JOINT rFoot
				{
					OFFSET 0.731520 -45.110401 -5.120640 
					CHANNELS 3 Zrotation Xrotation Yrotation
					End Site
					{
						OFFSET -1.122100 -3.699640 12.103000 
					}
				}
			}
		}
	}
	JOINT lButtock
	{
		OFFSET 8.778240 4.350840 1.219200 
		CHANNELS 3 Zrotation Xrotation Yrotation
		JOINT lThigh
		{
			OFFSET 0.000000 -1.706870 -2.194560 
			CHANNELS 3 Zrotation Xrotation Yrotation
			JOINT lShin
			{
				OFFSET 0.000000 -36.819901 0.731520 
				CHANNELS 3 Zrotation Xrotation Yrotation
				JOINT lFoot
				{
					OFFSET -0.731520 -45.110401 -5.120640 
					CHANNELS 3 Zrotation Xrotation Yrotation
					End Site
					{
						OFFSET 1.122100 -3.699640 12.103000 
					}
				}
			}
		}
	}
}
MOTION
Frames: 5
Frame Time: 0.040000
0.000000 0.000000 -190.000000 0.000000 0.000000 0.000000 1.673400 10.170700 -0.037300 -0.010200 -0.011800 0.050000 -10.147200 2.453400 -4.251200 16.919399 -2.558000 -5.086800 0.000000 0.000000 0.000000 0.000000 0.000000 0.000000 0.000000 0.000000 0.000000 73.929703 28.959801 -0.152300 -13.009500 -7.101100 29.405001 6.953600 26.870501 5.172000 0.000000 0.000000 0.000000 0.000000 0.000000 0.000000 0.000000 0.000000 0.000000 0.023500 0.013400 0.013600 0.000000 0.000000 0.000000 0.029900 0.008500 0.015800 0.000000 0.000000 0.000000 0.015400 0.020800 0.035100 0.000000 0.000000 0.000000 0.027600 -0.022200 -0.029300 0.000000 0.000000 0.000000 -77.930603 21.743000 10.337000 14.013800 -7.951300 -21.762400 -13.088000 2.205100 -11.002000 0.000000 0.000000 0.000000 0.000000 0.000000 0.000000 0.000000 0.000000 0.000000 -0.013200 0.006100 -0.005200 0.000000 0.000000 0.000000 -0.032900 0.030100 -0.004900 0.000000 0.000000 0.000000 -0.030000 0.004100 -0.032400 0.000000 0.000000 0.000000 -0.003800 -0.018400 0.013800 0.000000 0.000000 0.000000 -6.455100 -15.049600 -2.515500 1.651800 25.196301 -2.186600 -1.184600 -8.407000 -8.031500 0.000000 0.000000 0.000000 1.353000 -15.428200 -3.711100 3.112900 18.297501 -1.076100 2.767000 -11.589400 5.061300 
0.000000 0.000000 -190.000000 0.000000 0.000000 0.000000 -1.685900 8.744900 -1.592600 -0.010200 -0.011800 0.050100 -6.650900 3.195500 -2.847700 14.674800 -1.551000 -5.045300 0.000000 0.000000 0.000000 0.000000 0.000000 0.000000 0.000000 0.000000 0.000000 69.623001 36.262402 -0.311500 -13.864200 -8.006300 27.941799 6.357700 26.206301 5.379100 0.000000 0.000000 0.000000 0.000000 0.000000 0.000000 0.000000 0.000000 0.000000 0.023600 0.013400 0.013700 0.000000 0.000000 0.000000 0.030000 0.008500 0.015800 0.000000 0.000000 0.000000 0.015500 0.020900 0.035200 0.000000 0.000000 0.000000 0.027700 -0.022300 -0.029400 0.000000 0.000000 0.000000 -74.997902 21.889400 8.100400 15.050100 -9.319300 -24.143299 -12.986100 2.588400 -11.407500 0.000000 0.000000 0.000000 0.000000 0.000000 0.000000 0.000000 0.000000 0.000000 -0.013300 0.006100 -0.005200 0.000000 0.000000 0.000000 -0.032900 0.030200 -0.004900 0.000000 0.000000 0.000000 -0.030100 0.004100 -0.032500 0.000000 0.000000 0.000000 -0.003800 -0.018500 0.013800 0.000000 0.000000 0.000000 -9.985300 -16.268600 -2.340600 2.696800 28.896900 -1.873100 -1.230800 -8.355200 -8.104900 0.000000 0.000000 0.000000 -0.292500 -12.777800 -5.349700 3.342900 16.888901 -1.192600 2.744000 -11.590100 5.171900 
0.000000 0.000000 -190.000000 0.000000 0.000000 0.000000 1.758400 10.643300 -0.356000 -0.010200 -0.011800 0.050000 -10.103900 2.436500 -4.249400 16.531200 -2.588700 -5.078900 0.000000 0.000000 0.000000 0.000000 0.000000 0.000000 0.000000 0.000000 0.000000 73.694298 28.779499 -0.528100 -13.195400 -7.149300 29.428101 6.883200 26.111700 5.112500 0.000000 0.000000 0.000000 0.000000 0.000000 0.000000 0.000000 0.000000 0.000000 0.023500 0.013400 0.013600 0.000000 0.000000 0.000000 0.029900 0.008500 0.015800 0.000000 0.000000 0.000000 0.015400 0.020800 0.035100 0.000000 0.000000 0.000000 0.027600 -0.022200 -0.029300 0.000000 0.000000 0.000000 -77.390404 22.236099 10.222600 14.406700 -7.997400 -22.118099 -13.048600 2.049400 -10.847900 0.000000 0.000000 0.000000 0.000000 0.000000 0.000000 0.000000 0.000000 0.000000 -0.013200 0.006100 -0.005200 0.000000 0.000000 0.000000 -0.032900 0.030100 -0.004900 0.000000 0.000000 0.000000 -0.030000 0.004100 -0.032400 0.000000 0.000000 0.000000 -0.003800 -0.018400 0.013800 0.000000 0.000000 0.000000 -6.516200 -17.067499 -2.261500 1.816100 25.002600 -2.188600 -1.156400 -8.389600 -7.841900 0.000000 0.000000 0.000000 3.208700 -15.639300 -4.750200 4.509700 24.562700 -1.308600 2.696500 -11.725500 4.997300 
0.000000 0.000000 -190.000000 0.000000 0.000000 0.000000 1.758400 10.643300 -0.356000 -0.010200 -0.011800 0.050000 -10.103900 2.436500 -4.249400 16.531200 -2.588700 -5.078900 0.000000 0.000000 0.000000 0.000000 0.000000 0.000000 0.000000 0.000000 0.000000 73.694298 28.779499 -0.528100 -13.195400 -7.149300 29.428101 6.883200 26.111700 5.112500 0.000000 0.000000 0.000000 0.000000 0.000000 0.000000 0.000000 0.000000 0.000000 0.023500 0.013400 0.013600 0.000000 0.000000 0.000000 0.029900 0.008500 0.015800 0.000000 0.000000 0.000000 0.015400 0.020800 0.035100 0.000000 0.000000 0.000000 0.027600 -0.022200 -0.029300 0.000000 0.000000 0.000000 -77.390404 22.236099 10.222600 14.406700 -7.997400 -22.118099 -13.048600 2.049400 -10.847900 0.000000 0.000000 0.000000 0.000000 0.000000 0.000000 0.000000 0.000000 0.000000 -0.013200 0.006100 -0.005200 0.000000 0.000000 0.000000 -0.032900 0.030100 -0.004900 0.000000 0.000000 0.000000 -0.030000 0.004100 -0.032400 0.000000 0.000000 0.000000 -0.003800 -0.018400 0.013800 0.000000 0.000000 0.000000 -6.516200 -17.067499 -2.261500 1.816100 25.002600 -2.188600 -1.156400 -8.389600 -7.841900 0.000000 0.000000 0.000000 3.208700 -15.639300 -4.750200 4.509700 24.562700 -1.308600 2.696500 -11.725500 4.997300 
0.000000 0.000000 -190.000000 0.000000 0.000000 0.000000 0.900100 11.084000 -0.631200 -0.010200 -0.011800 0.050000 -9.984400 1.957900 -3.292400 18.250601 -3.176400 -5.245000 0.000000 0.000000 0.000000 0.000000 0.000000 0.000000 0.000000 0.000000 0.000000 74.589600 31.592199 -1.212600 -11.992400 -6.972900 30.703899 7.443800 28.001101 5.472800 0.000000 0.000000 0.000000 0.000000 0.000000 0.000000 0.000000 0.000000 0.000000 0.023500 0.013400 0.013600 0.000000 0.000000 0.000000 0.029900 0.008500 0.015800 0.000000 0.000000 0.000000 0.015400 0.020800 0.035100 0.000000 0.000000 0.000000 0.027600 -0.022200 -0.029300 0.000000 0.000000 0.000000 -76.854202 22.498400 9.952400 14.136500 -8.650500 -22.096800 -13.879000 2.258800 -11.879000 0.000000 0.000000 0.000000 0.000000 0.000000 0.000000 0.000000 0.000000 0.000000 -0.013200 0.006100 -0.005200 0.000000 0.000000 0.000000 -0.032900 0.030100 -0.004900 0.000000 0.000000 0.000000 -0.030000 0.004100 -0.032400 0.000000 0.000000 0.000000 -0.003800 -0.018400 0.013800 0.000000 0.000000 0.000000 -4.492500 -4.654800 0.421200 1.303500 23.052401 -2.482300 -1.091100 -8.583900 -7.899300 0.000000 0.000000 0.000000 3.106500 -15.591700 -7.489400 5.046900 26.806000 -1.141100 3.032000 -11.865400 5.794900 
